<?xml version="1.0" encoding="utf-8"?>
<!-- Generator: Adobe Illustrator 17.1.0, SVG Export Plug-In . SVG Version: 6.00 Build 0)  -->
<!DOCTYPE svg PUBLIC "-//W3C//DTD SVG 1.1//EN" "http://www.w3.org/Graphics/SVG/1.1/DTD/svg11.dtd">
<svg version="1.1" xmlns="http://www.w3.org/2000/svg" xmlns:xlink="http://www.w3.org/1999/xlink" x="0px" y="0px"
	 viewBox="0 0 354.3 354.3" enable-background="new 0 0 354.3 354.3" xml:space="preserve">
<symbol  id="Новый_символ" viewBox="-179.3 -212.1 382 380.9">
	<polygon fill="none" points="189.1,-197.5 -165.2,-197.5 -165.2,156.9 189.1,156.9 	"/>
	<polygon fill="none" stroke="#A6A8AA" stroke-miterlimit="10" points="158.4,-68.2 149.1,-77.7 106,-35.7 115.4,-26.2 	"/>
	<polygon fill="none" stroke="#A6A8AA" stroke-miterlimit="10" points="-113,-49.5 -134.1,-71.1 -154.5,-51.2 -133.4,-29.6 	"/>
	<polygon fill="none" stroke="#A6A8AA" stroke-miterlimit="10" points="-79.1,-146.1 -93.2,-160.5 -108.9,-145.2 -94.8,-130.7 	"/>
	<polygon fill="none" stroke="#A6A8AA" stroke-miterlimit="10" points="180.6,37.8 166.4,23.3 137.3,51.8 151.4,66.3 	"/>
	<polygon fill="none" stroke="#A6A8AA" stroke-miterlimit="10" points="-90.6,-85.7 -96.2,-91.5 -96.3,-91.4 -109.8,-105.2 
		-70.1,-144 -56.6,-130.1 -81,-106.3 -75.4,-100.5 	"/>
	<polygon fill="none" stroke="#A6A8AA" stroke-miterlimit="10" points="-48.3,-82.8 -62.3,-97.1 -81.7,-78.3 -67.7,-63.9 	"/>
	<polygon fill="none" stroke="#A6A8AA" stroke-miterlimit="10" points="-41.9,-155.8 -61.9,-176.2 -72.9,-165.5 -53,-145 	"/>
	<polygon fill="none" stroke="#A6A8AA" stroke-miterlimit="10" points="-147.7,11.3 -167.6,-9.1 -178.6,1.7 -158.7,22.1 	"/>
	<polygon fill="none" stroke="#A6A8AA" stroke-miterlimit="10" points="-141,-22 -160.9,-42.4 -171.9,-31.7 -152,-11.2 	"/>
	<polygon fill="none" stroke="#A6A8AA" stroke-miterlimit="10" points="46.6,-83.8 1.1,-130.4 -16.2,-113.5 29.3,-66.9 	"/>
	<polygon fill="none" stroke="#A6A8AA" stroke-miterlimit="10" points="-142.8,-75.2 -158.1,-90.9 -171.7,-77.7 -156.3,-62 	"/>
	<polygon fill="none" stroke="#A6A8AA" stroke-miterlimit="10" points="-91.8,-75.9 -110.4,-94.9 -131.8,-74 -113.2,-55 	"/>
	<polygon fill="none" stroke="#A6A8AA" stroke-miterlimit="10" points="-109.1,-7.4 -123.1,-21.8 -84.6,-59.3 -70.5,-44.9 
		-70.6,-44.9 -50.4,-24.2 -65.2,-9.7 -85.4,-30.4 	"/>
	<polygon fill="none" stroke="#A6A8AA" stroke-miterlimit="10" points="-128.8,79.5 -142.9,65.1 -158.6,80.4 -144.5,94.9 	"/>
	<polygon fill="none" stroke="#A6A8AA" stroke-miterlimit="10" points="-119.6,121.4 -125.2,115.7 -125.3,115.7 -138.8,101.9 
		-99.1,63.1 -85.5,77 -110,100.8 -104.4,106.6 	"/>
	<polygon fill="none" stroke="#A6A8AA" stroke-miterlimit="10" points="-71,128.4 -85.1,114 -104.4,132.9 -90.4,147.2 	"/>
	<polygon fill="none" stroke="#A6A8AA" stroke-miterlimit="10" points="-68.2,93.4 -74.9,86.5 -84.3,95.7 -77.5,102.6 	"/>
	<polygon fill="none" stroke="#A6A8AA" stroke-miterlimit="10" points="-42.8,-4.2 -49.5,-11.1 -58.9,-2 -52.2,4.9 	"/>
	<polygon fill="none" stroke="#A6A8AA" stroke-miterlimit="10" points="-40.5,109.6 -55.8,93.9 -69.4,107.1 -54,122.8 	"/>
	<polygon fill="none" stroke="#A6A8AA" stroke-miterlimit="10" points="-145.7,-125.7 -161,-141.4 -174.6,-128.2 -159.3,-112.5 	"/>
	<polygon fill="none" stroke="#A6A8AA" stroke-miterlimit="10" points="-60.2,60.1 -80.1,39.7 -94.7,54 -74.8,74.4 	"/>
	<polygon fill="none" stroke="#A6A8AA" stroke-miterlimit="10" points="-23.6,-169.4 -38.2,-184.4 -49,-173.9 -34.4,-158.8 	"/>
	<polygon fill="none" stroke="#A6A8AA" stroke-miterlimit="10" points="-113.1,-181.7 -127.8,-196.7 -138.6,-186.2 -123.9,-171.2 	
		"/>
	<polygon fill="none" stroke="#A6A8AA" stroke-miterlimit="10" points="129.9,-170.4 115.2,-185.4 104.4,-174.9 119.1,-159.8 	"/>
	<polygon fill="none" stroke="#A6A8AA" stroke-miterlimit="10" points="78.5,-196.4 63.9,-211.4 53.1,-200.9 67.7,-185.8 	"/>
	<polygon fill="none" stroke="#A6A8AA" stroke-miterlimit="10" points="181.3,77 166.6,61.9 155.8,72.5 170.5,87.5 	"/>
	<polygon fill="none" stroke="#A6A8AA" stroke-miterlimit="10" points="-62,7.8 -81.9,-12.6 -96.6,1.7 -76.7,22 	"/>
	<polygon fill="none" stroke="#A6A8AA" stroke-miterlimit="10" points="202,153.8 182.1,133.4 167.4,147.7 187.3,168 	"/>
	<polygon fill="none" stroke="#A6A8AA" stroke-miterlimit="10" points="-43.1,33.3 -57.3,18.7 -71,32 -56.7,46.7 	"/>
	<polygon fill="none" stroke="#A6A8AA" stroke-miterlimit="10" points="148,142.5 133.7,127.9 120,141.2 134.3,155.9 	"/>
	<polygon fill="none" stroke="#A6A8AA" stroke-miterlimit="10" points="-81.4,28.2 -100.6,8.6 -122,29.5 -102.8,49.1 	"/>
	<polygon fill="none" stroke="#A6A8AA" stroke-miterlimit="10" points="-107.4,2.9 -126.6,-16.8 -148,4.1 -128.8,23.8 	"/>
	<polygon fill="none" stroke="#A6A8AA" stroke-miterlimit="10" points="-29.5,-60.4 -43.1,-74.4 -64.6,-53.5 -50.9,-39.5 	"/>
	<polygon fill="none" stroke="#A6A8AA" stroke-miterlimit="10" points="-110.5,59.6 -124.3,45.5 -139.8,60.6 -126,74.8 	"/>
	<polygon fill="none" stroke="#A6A8AA" stroke-miterlimit="10" points="-114.5,135.2 -133.1,116.2 -154.5,137.1 -135.9,156.2 	"/>
	<polygon fill="none" stroke="#A6A8AA" stroke-miterlimit="10" points="14.9,-15.7 1.1,-29.8 -42,12.1 -28.1,26.3 	"/>
	<polygon fill="none" stroke="#A6A8AA" stroke-miterlimit="10" points="-13.4,-25.4 -34.5,-47 -50.4,-31.4 -29.3,-9.8 	"/>
	<polygon fill="none" stroke="#A6A8AA" stroke-miterlimit="10" points="-68.1,-182 -89.1,-203.6 -105.1,-188.1 -84,-166.5 	"/>
	<polygon fill="none" stroke="#A6A8AA" stroke-miterlimit="10" points="-121.2,-153 -142.3,-174.6 -158.2,-159.1 -137.1,-137.5 	"/>
	<polygon fill="none" stroke="#A6A8AA" stroke-miterlimit="10" points="49.7,-34.1 28.6,-55.7 8.1,-35.8 29.2,-14.2 	"/>
	<polygon fill="none" stroke="#A6A8AA" stroke-miterlimit="10" points="9.6,-189.1 -11.5,-210.7 -31.9,-190.8 -10.8,-169.2 	"/>
	<polygon fill="none" stroke="#A6A8AA" stroke-miterlimit="10" points="23.1,-62.8 10.1,-76.2 -21,-45.8 -8,-32.4 	"/>
	<polygon fill="none" stroke="#A6A8AA" stroke-miterlimit="10" points="-133.6,38 -146.6,24.7 -177.7,55.1 -164.7,68.4 	"/>
	<polygon fill="none" stroke="#A6A8AA" stroke-miterlimit="10" points="178.4,-181.1 165.4,-194.4 134.2,-164 147.2,-150.7 	"/>
	<polygon fill="none" stroke="#A6A8AA" stroke-miterlimit="10" points="-6.3,-141.4 -20.7,-156.2 -44.6,-132.8 -30.2,-118.1 	"/>
	<polygon fill="none" stroke="#A6A8AA" stroke-miterlimit="10" points="163.6,-128.9 149.2,-143.6 125.3,-120.3 139.7,-105.5 	"/>
	<polygon fill="none" stroke="#A6A8AA" stroke-miterlimit="10" points="62.4,-116 48.3,-130.4 32.6,-115.1 46.7,-100.6 	"/>
	<polygon fill="none" stroke="#A6A8AA" stroke-miterlimit="10" points="75.9,-71 70.3,-76.8 70.2,-76.8 56.7,-90.6 96.4,-129.4 
		110,-115.5 85.5,-91.6 91.1,-85.9 	"/>
	<polygon fill="none" stroke="#A6A8AA" stroke-miterlimit="10" points="118.2,-68.1 104.2,-82.5 84.8,-63.6 98.9,-49.2 	"/>
	<polygon fill="none" stroke="#A6A8AA" stroke-miterlimit="10" points="121.1,-103.1 114.4,-110 105,-100.8 111.7,-93.9 	"/>
	<polygon fill="none" stroke="#A6A8AA" stroke-miterlimit="10" points="181.9,-144.8 175.2,-151.7 165.8,-142.5 172.5,-135.6 	"/>
	<polygon fill="none" stroke="#A6A8AA" stroke-miterlimit="10" points="0.7,-85.3 -14.1,-100.4 -29.9,-85 -15.1,-69.9 	"/>
	<polygon fill="none" stroke="#A6A8AA" stroke-miterlimit="10" points="74.8,-61.2 56.2,-80.3 34.8,-59.4 53.3,-40.3 	"/>
	<polygon fill="none" stroke="#A6A8AA" stroke-miterlimit="10" points="82.6,-131.2 32.6,-182.5 24,-174.1 74,-122.8 	"/>
	<polygon fill="none" stroke="#A6A8AA" stroke-miterlimit="10" points="57.5,7.3 43.4,-7.1 81.9,-44.7 96,-30.3 95.9,-30.2 
		116.1,-9.6 101.3,4.9 81.1,-15.8 	"/>
	<polygon fill="none" stroke="#A6A8AA" stroke-miterlimit="10" points="-29,69.7 -43.4,55 -67.3,78.3 -52.9,93.1 	"/>
	<polygon fill="none" stroke="#A6A8AA" stroke-miterlimit="10" points="-7.1,83.8 -21.6,69 17.5,30.8 32,45.6 32,45.7 52.2,66.3 
		36.4,81.8 16.2,61.1 	"/>
	<polygon fill="none" stroke="#A6A8AA" stroke-miterlimit="10" points="111.8,103.1 101.3,92.3 129.6,64.6 140.1,75.4 140.1,75.4 
		154.8,90.4 143.3,101.6 128.7,86.6 	"/>
	<polygon fill="none" stroke="#A6A8AA" stroke-miterlimit="10" points="39.7,95.2 25.6,80.7 9.9,96.1 24,110.5 	"/>
	<polygon fill="none" stroke="#A6A8AA" stroke-miterlimit="10" points="51.6,141.2 45.9,135.5 45.9,135.5 32.3,121.7 72.1,82.9 
		85.6,96.8 61.1,120.6 66.7,126.4 	"/>
	<polygon fill="none" stroke="#A6A8AA" stroke-miterlimit="10" points="98.4,108.1 91.6,101.2 82.3,110.3 89,117.2 	"/>
	<polygon fill="none" stroke="#A6A8AA" stroke-miterlimit="10" points="-50.9,146.1 -57.6,139.2 -67,148.4 -60.2,155.3 	"/>
	<polygon fill="none" stroke="#A6A8AA" stroke-miterlimit="10" points="-23.8,93.4 -30.6,86.5 -39.9,95.7 -33.2,102.6 	"/>
	<polygon fill="none" stroke="#A6A8AA" stroke-miterlimit="10" points="67,-178.6 60.3,-185.5 50.9,-176.4 57.6,-169.5 	"/>
	<polygon fill="none" stroke="#A6A8AA" stroke-miterlimit="10" points="115.3,152.8 96.4,133.4 82.8,146.7 101.6,166.1 	"/>
	<polygon fill="none" stroke="#A6A8AA" stroke-miterlimit="10" points="126,124.2 110.7,108.5 97.2,121.7 112.5,137.4 	"/>
	<polygon fill="none" stroke="#A6A8AA" stroke-miterlimit="10" points="106.3,74.7 86.4,54.3 71.8,68.6 91.7,89 	"/>
	<polygon fill="none" stroke="#A6A8AA" stroke-miterlimit="10" points="-141,107.1 -160.9,86.7 -172.1,97.7 -152.2,118 	"/>
	<polygon fill="none" stroke="#A6A8AA" stroke-miterlimit="10" points="183.5,111.4 163.6,91 134,119.9 153.9,140.3 	"/>
	<polygon fill="none" stroke="#A6A8AA" stroke-miterlimit="10" points="123.5,47.9 109.2,33.3 95.5,46.7 109.8,61.3 	"/>
	<polygon fill="none" stroke="#A6A8AA" stroke-miterlimit="10" points="96.3,11.8 82,-2.8 68.3,10.6 82.6,25.2 	"/>
	<polygon fill="none" stroke="#A6A8AA" stroke-miterlimit="10" points="85.1,42.8 66,23.2 44.5,44.1 63.7,63.8 	"/>
	<polygon fill="none" stroke="#A6A8AA" stroke-miterlimit="10" points="52,25.7 38.2,11.5 22.7,26.7 36.5,40.8 	"/>
	<polygon fill="none" stroke="#A6A8AA" stroke-miterlimit="10" points="182.2,-40.8 168.4,-55 152.9,-39.8 166.7,-25.7 	"/>
	<polygon fill="none" stroke="#A6A8AA" stroke-miterlimit="10" points="39.1,0.7 25.8,-12.9 -26.3,38 -13,51.6 	"/>
	<polygon fill="none" stroke="#A6A8AA" stroke-miterlimit="10" points="-20,130.5 -34.8,115.3 -50.6,130.7 -35.8,145.9 	"/>
	<polygon fill="none" stroke="#A6A8AA" stroke-miterlimit="10" points="38.8,141.4 -11.3,90.2 -25.9,104.5 24.1,155.7 	"/>
	<polygon fill="none" stroke="#A6A8AA" stroke-miterlimit="10" points="171.6,-5.6 151.7,-25.9 137,-11.7 156.9,8.7 	"/>
	<polygon fill="none" stroke="#A6A8AA" stroke-miterlimit="10" points="152.2,14.9 133,-4.8 111.6,16.2 130.8,35.8 	"/>
	<polygon fill="none" stroke="#A6A8AA" stroke-miterlimit="10" points="126.8,-138.9 106.9,-159.3 92.2,-145 112.1,-124.6 	"/>
	<polygon fill="none" stroke="#A6A8AA" stroke-miterlimit="10" points="-99,-123.4 -116.1,-140.9 -155.5,-102.5 -138.4,-84.9 	"/>
	<polygon fill="none" stroke="#A6A8AA" stroke-miterlimit="10" points="42.1,-133.9 22.2,-154.3 7.5,-140 27.4,-119.6 	"/>
	<polygon fill="none" stroke="#A6A8AA" stroke-miterlimit="10" points="180.2,-88.8 160.4,-109.2 145.7,-94.9 165.6,-74.5 	"/>
	<polygon fill="none" stroke="#A6A8AA" stroke-miterlimit="10" points="100.7,-163.5 87,-177.6 65.5,-156.6 79.2,-142.6 	"/>
</symbol>
<g id="Слой_3">
</g>
<g id="Layer_1">
	
		<use xlink:href="#Новый_символ"  width="382" height="380.9" x="-179.3" y="-212.1" transform="matrix(1 0 0 -1 -189.1337 511.192)" overflow="visible"/>
	
		<use xlink:href="#Новый_символ"  width="382" height="380.9" id="XMLID_3_" x="-179.3" y="-212.1" transform="matrix(1 0 0 -1 -189.1337 156.8613)" overflow="visible"/>
	
		<use xlink:href="#Новый_символ"  width="382" height="380.9" id="XMLID_7_" x="-179.3" y="-212.1" transform="matrix(1 0 0 -1 165.195 511.192)" overflow="visible"/>
	
		<use xlink:href="#Новый_символ"  width="382" height="380.9" x="-179.3" y="-212.1" transform="matrix(1 0 0 -1 519.5259 511.192)" overflow="visible"/>
	
		<use xlink:href="#Новый_символ"  width="382" height="380.9" id="XMLID_2_" x="-179.3" y="-212.1" transform="matrix(1 0 0 -1 519.5259 156.8613)" overflow="visible"/>
	
		<use xlink:href="#Новый_символ"  width="382" height="380.9" id="XMLID_1_" x="-179.3" y="-212.1" transform="matrix(1 0 0 -1 165.1952 156.8613)" overflow="visible"/>
	
		<use xlink:href="#Новый_символ"  width="382" height="380.9" id="XMLID_6_" x="-179.3" y="-212.1" transform="matrix(1 0 0 -1 -189.1337 -197.4695)" overflow="visible"/>
	
		<use xlink:href="#Новый_символ"  width="382" height="380.9" id="XMLID_5_" x="-179.3" y="-212.1" transform="matrix(1 0 0 -1 165.1952 -197.4695)" overflow="visible"/>
	
		<use xlink:href="#Новый_символ"  width="382" height="380.9" id="XMLID_4_" x="-179.3" y="-212.1" transform="matrix(1 0 0 -1 519.5259 -197.4695)" overflow="visible"/>
</g>
</svg>
